<svg xmlns="http://www.w3.org/2000/svg" width="50.239" height="49" viewBox="0 0 50.239 49">
  <path id="Github" d="M25.119,0a25.122,25.122,0,0,0-7.94,48.956c1.254.232,1.66-.546,1.66-1.208V43.071c-6.987,1.52-8.442-2.964-8.442-2.964-1.143-2.9-2.79-3.676-2.79-3.676-2.28-1.559.174-1.526.174-1.526a5.273,5.273,0,0,1,3.85,2.589c2.24,3.839,5.876,2.73,7.31,2.087a5.329,5.329,0,0,1,1.6-3.358c-5.579-.638-11.444-2.792-11.444-12.415a9.722,9.722,0,0,1,2.587-6.742,9.035,9.035,0,0,1,.245-6.648s2.11-.674,6.91,2.575a23.809,23.809,0,0,1,12.579,0c4.8-3.249,6.9-2.575,6.9-2.575a9.027,9.027,0,0,1,.247,6.648,9.7,9.7,0,0,1,2.585,6.742c0,9.648-5.876,11.773-11.469,12.394A6,6,0,0,1,31.4,40.855v6.893c0,.668.4,1.453,1.677,1.206A25.124,25.124,0,0,0,25.119,0Z" fill="#89b4c8"/>
</svg>
