<svg xmlns="http://www.w3.org/2000/svg" xmlns:xlink="http://www.w3.org/1999/xlink" width="47.2" height="59" viewBox="0 0 47.2 59">
  <defs>
    <clipPath id="clip-path">
      <rect id="Fond-droit" width="47.2" height="59" fill="#89b4c8"/>
    </clipPath>
  </defs>
  <g id="Linkedin" clip-path="url(#clip-path)">
    <path id="iconmonstr-linkedin-3" d="M37.367,0H9.833A9.834,9.834,0,0,0,0,9.833V37.367A9.834,9.834,0,0,0,9.833,47.2H37.367A9.833,9.833,0,0,0,47.2,37.367V9.833A9.833,9.833,0,0,0,37.367,0ZM15.733,37.367h-5.9V15.733h5.9ZM12.783,13.24A3.469,3.469,0,1,1,16.225,9.77,3.456,3.456,0,0,1,12.783,13.24Zm26.55,24.127h-5.9V26.345c0-6.624-7.867-6.122-7.867,0V37.367h-5.9V15.733h5.9V19.2c2.745-5.086,13.767-5.461,13.767,4.869Z" transform="translate(0 5.9)" fill="#89b4c8"/>
  </g>
</svg>
