<svg xmlns="http://www.w3.org/2000/svg" width="47.99" height="39" viewBox="0 0 47.99 39">
  <path id="Twitter" d="M47.99,6.865a19.657,19.657,0,0,1-5.655,1.55,9.862,9.862,0,0,0,4.329-5.447,19.723,19.723,0,0,1-6.253,2.39,9.852,9.852,0,0,0-16.779,8.978A27.951,27.951,0,0,1,3.341,4.05,9.859,9.859,0,0,0,6.387,17.195,9.8,9.8,0,0,1,1.93,15.963a9.853,9.853,0,0,0,7.9,9.778,9.869,9.869,0,0,1-4.447.168,9.853,9.853,0,0,0,9.2,6.837A19.8,19.8,0,0,1,0,36.825a27.873,27.873,0,0,0,15.093,4.423c18.28,0,28.608-15.439,27.984-29.286a20.045,20.045,0,0,0,4.913-5.1Z" transform="translate(0 -2.248)" fill="#89b4c8"/>
</svg>
